<svg width="111" height="64" viewBox="0 0 111 64" fill="none" xmlns="http://www.w3.org/2000/svg">
<g filter="url(#filter0_d_322_170)">
<rect width="64" height="64" rx="32" transform="matrix(0.866025 0.5 -0.866025 0.5 55.4258 0)" fill="#0C0C0C" shape-rendering="crispEdges"/>
<rect x="1.49012e-08" y="-0.25" width="64.5" height="64.5" rx="32.25" transform="matrix(0.866025 0.5 -0.866025 0.5 55.2093 -0.125)" stroke="#333333" stroke-width="0.5" shape-rendering="crispEdges"/>
<g clip-path="url(#clip0_322_170)">
<path d="M57.5789 45.365C57.9199 45.1434 58.2385 44.9133 58.5727 44.69C59.3239 44.1922 60.1579 43.7467 61.0065 43.3051C61.4653 43.0661 61.4254 42.6223 61.0065 42.3804C60.7872 42.2538 60.5096 42.1959 60.229 42.1948C60.1754 42.1278 60.1091 42.0648 60.0078 42.0142C59.9162 41.9692 59.8237 41.9259 59.7302 41.8831C59.962 41.7245 60.2066 41.5721 60.4482 41.4213C60.7668 41.2216 61.0834 41.0242 61.404 40.8279C62.1269 40.3824 62.8362 39.9256 63.5513 39.4756C64.2644 39.0268 65.039 38.6077 65.7941 38.1808C66.1565 37.976 66.5111 37.769 66.8872 37.5721C67.2711 37.3708 67.6637 37.1744 68.0437 36.9686C68.7237 36.6018 69.3853 36.2199 70.0595 35.8486C70.7307 35.4813 71.3932 35.1089 72.0509 34.7315C72.1454 34.8018 72.2379 34.8721 72.3373 34.9408C72.4971 35.0533 72.6744 35.1601 72.8488 35.2664C72.9268 35.3137 73.0242 35.3429 73.1197 35.3722C73.1275 35.3767 73.1294 35.3834 73.1382 35.3885C73.5464 35.6242 74.2362 35.6264 74.6444 35.3885C75.3576 34.9723 76.0883 34.5639 76.8219 34.1572C77.6364 33.7072 78.5045 33.2915 79.3073 32.8348C79.5314 32.7065 79.6356 32.5327 79.6298 32.3606C79.7925 32.1643 79.8188 31.9308 79.6162 31.7351C79.4544 31.5798 79.2138 31.4521 79.0082 31.3154C78.827 31.1973 78.6438 31.0792 78.4607 30.9622C78.1713 30.7794 77.8975 30.5909 77.5965 30.4149C77.2331 30.2017 76.8697 29.9896 76.5033 29.7781C75.8808 29.4187 75.2533 29.0632 74.6123 28.7144C74.1183 28.445 73.3389 28.4304 72.8488 28.7133C72.6062 28.8534 72.4883 29.0508 72.4932 29.246C72.3159 29.363 72.1366 29.48 71.9583 29.5964C71.6397 29.4339 71.3416 29.2584 71.0376 29.0885C70.6791 28.886 70.304 28.6953 69.9494 28.4928C69.2859 28.112 68.6195 27.734 67.9638 27.3509C67.2009 26.9049 66.4322 26.4633 65.6752 26.015C64.9484 25.5841 64.2469 25.1398 63.524 24.7066C62.8683 24.3146 62.1931 23.9338 61.5433 23.5383C60.986 23.2008 60.4326 22.8611 59.8782 22.5219C60.0682 22.4122 60.2563 22.3014 60.4482 22.1917C60.6304 22.0876 60.72 21.9515 60.7531 21.812C60.7619 21.8069 60.7736 21.8058 60.7824 21.8008C60.9977 21.6764 61.1224 21.5054 61.1214 21.3294C61.1205 21.1409 60.987 20.9975 60.7824 20.858C60.1267 20.4063 59.3365 20.03 58.6156 19.6138C57.7085 19.0923 56.8317 18.5546 55.9392 18.0258C55.9363 18.0241 55.9324 18.0219 55.9295 18.0202C55.4852 17.7637 54.738 17.7721 54.2986 18.0258C54.0589 18.1642 53.9576 18.3521 53.9751 18.5366C53.638 18.7481 53.3048 18.9618 52.9609 19.1694C52.5916 19.3904 52.2155 19.6053 51.8366 19.8196C51.4585 20.0334 51.0834 20.2522 50.7113 20.4693C50.3566 20.6763 49.9922 20.8777 49.6776 21.1055C49.4866 21.2428 49.3551 21.3716 49.356 21.5544C49.356 21.722 49.4739 21.8846 49.6805 22.0038C49.7487 22.0432 49.8354 22.0685 49.9192 22.0955C50.2378 22.2772 50.5632 22.4549 50.8866 22.6327C50.1267 23.0613 49.3804 23.4978 48.6049 23.9174C47.8576 24.3196 47.1103 24.7241 46.328 25.1026C45.947 25.2877 45.5515 25.4632 45.2007 25.6679C44.8344 25.8817 44.4739 26.0966 44.1066 26.3086C43.372 26.735 42.6267 27.1541 41.896 27.5827C41.2841 27.9427 40.6967 28.3168 40.1121 28.6914C39.6649 28.9799 39.207 29.2612 38.7695 29.552C38.5591 29.4271 38.3496 29.3006 38.1372 29.1768C37.842 29.0053 37.4202 28.9574 37.0324 29.0092C36.668 28.9631 36.2705 29.0081 35.9977 29.1701C35.571 29.4232 35.1598 29.6864 34.7272 29.9339C34.3785 30.1331 34.0277 30.3311 33.6741 30.5285C33.3321 30.7169 32.9989 30.9093 32.6608 31.1C32.5156 31.1838 32.3763 31.271 32.2438 31.361C32.0324 31.5033 31.8395 31.6383 31.7537 31.8228C31.7489 31.8313 31.7528 31.8403 31.7498 31.8487C31.5793 32.0878 31.6563 32.3774 31.9924 32.5681C32.8966 33.0789 33.7968 33.5896 34.6815 34.1116C34.9445 34.268 35.1871 34.4317 35.456 34.5847C35.7044 34.7259 35.9636 34.871 36.1818 35.0263C36.1653 35.0133 36.1477 35.0009 36.1322 34.9886C36.2832 35.0915 36.4566 35.168 36.7031 35.2057C36.9817 35.2473 37.2808 35.2243 37.5322 35.1433C37.5731 35.1298 37.6004 35.1061 37.6384 35.0898C38.0028 35.1528 38.4139 35.1101 38.6974 34.9464C38.752 34.9149 38.8065 34.8845 38.8611 34.853C40.4657 35.6906 42.0382 36.5411 43.5376 37.4416C44.2849 37.8888 45.0341 38.3326 45.759 38.7905C46.4235 39.2113 47.0772 39.6348 47.7719 40.0404C48.3632 40.3863 48.9429 40.7401 49.5382 41.0861C49.9279 41.3111 50.3206 41.5344 50.722 41.7526C50.4813 41.9107 50.2426 42.0688 50.0224 42.2375C49.9309 42.332 49.8831 42.4349 49.8831 42.5429C49.8841 42.6391 49.9318 42.7297 50.0049 42.8146C49.9279 43.0323 50.0069 43.268 50.2982 43.4294C51.0269 43.8322 51.7839 44.2186 52.5039 44.6264C52.6637 44.7187 52.8225 44.8126 52.9804 44.9083C53.4207 45.1715 53.8611 45.437 54.3911 45.6373C54.6288 45.7273 54.9104 45.7379 55.1764 45.7036C55.4784 45.9534 56.1234 46.0771 56.5871 45.8994C56.9739 45.7514 57.273 45.5608 57.5789 45.365ZM75.8223 31.3222C75.9879 31.4156 76.1282 31.5269 76.2822 31.6271C76.4156 31.7131 76.555 31.7958 76.6816 31.8836C76.8453 31.9961 77.008 32.1046 77.1863 32.2098C76.5706 32.5608 75.9499 32.9079 75.3313 33.2583C74.8734 33.5171 74.4223 33.7798 73.9702 34.0419C73.8231 33.9446 73.6721 33.8484 73.523 33.7522C73.1849 33.5334 72.8059 33.3337 72.4455 33.1278C72.0031 32.8769 71.5715 32.621 71.137 32.3656C71.0191 32.2953 70.8973 32.2261 70.7794 32.1558C71.2695 31.8684 71.7693 31.5877 72.2526 31.2963C72.8059 30.9656 73.3525 30.6298 73.8971 30.2928C74.1154 30.4098 74.3336 30.5257 74.5509 30.6421C74.9727 30.8699 75.4102 31.0888 75.8223 31.3222ZM57.4231 20.75C57.6803 20.8985 57.9414 21.0493 58.1957 21.2028C58.3058 21.2709 58.4159 21.3401 58.525 21.4098C58.1596 21.632 57.8001 21.8564 57.4387 22.0809C57.0597 22.3177 56.6612 22.5455 56.2676 22.7773C55.947 22.9668 55.6509 23.1704 55.3391 23.3639C55.3215 23.3741 55.304 23.3853 55.2865 23.3966C54.8237 23.1238 54.3629 22.8498 53.8894 22.5854C53.2483 22.2277 52.6394 21.8525 52.0226 21.4807C52.1269 21.4194 52.2243 21.353 52.3305 21.2917C52.7007 21.0802 53.069 20.8676 53.4324 20.6533C54.0579 20.2843 54.6853 19.9164 55.3089 19.5463C55.8857 19.8714 56.4634 20.1959 57.0353 20.5261C57.161 20.6009 57.2935 20.6752 57.4231 20.75ZM37.0373 33.7078C36.78 33.5525 36.517 33.3984 36.2578 33.242C35.8993 33.0238 35.5554 32.7993 35.1998 32.5805C34.8909 32.3921 34.5753 32.2087 34.2615 32.0242C34.6172 31.8065 34.9884 31.5956 35.3479 31.3846C35.8857 31.064 36.4391 30.7513 36.9876 30.4368C37.4523 30.7029 37.917 30.9689 38.3837 31.235C38.6283 31.3739 38.8718 31.5101 39.1144 31.6479C39.3015 31.7536 39.4963 31.8594 39.6561 31.9786C39.5977 31.9336 39.5363 31.8869 39.4769 31.8425C39.6941 32.0096 39.9328 32.1654 40.1822 32.3161C39.2557 32.8499 38.3311 33.3849 37.4348 33.9361C37.3987 33.9164 37.3656 33.8939 37.3295 33.8743C37.2272 33.8174 37.1279 33.7646 37.0373 33.7078ZM50.5827 39.9971C49.8929 39.5898 49.2109 39.1769 48.5328 38.7652C47.8215 38.3321 47.1454 37.8821 46.4351 37.4484C46.0912 37.2386 45.7434 37.0333 45.3907 36.8296C44.9971 36.6024 44.5996 36.3785 44.1982 36.1546C42.9151 35.4408 41.6641 34.7073 40.3557 34.0081C40.9587 33.6746 41.5901 33.3573 42.1912 33.0204C42.3549 32.9281 42.4357 32.8094 42.4776 32.6863C42.8878 32.4337 42.8917 32.0219 42.4581 31.7761C42.1717 31.613 41.894 31.4482 41.6134 31.2817C41.5413 31.2401 41.4683 31.1979 41.3981 31.1574C41.2393 31.0679 41.0834 30.9779 40.9344 30.8806C40.7054 30.7327 40.4687 30.5893 40.2358 30.4436C40.7775 30.0577 41.3845 29.705 41.9749 29.3439C42.3101 29.1391 42.6335 28.9265 42.9784 28.7274C43.3292 28.5226 43.6896 28.3258 44.0355 28.1193C44.7604 27.6862 45.5076 27.2638 46.2422 26.8329C46.6027 26.6225 46.9554 26.4099 47.3159 26.1995C47.653 26.0004 48.0466 25.8328 48.3973 25.6415C48.7159 25.4688 49.017 25.286 49.3375 25.1144C49.6814 24.9294 50.0312 24.7511 50.3849 24.5739C51.0756 24.2246 51.7498 23.8657 52.4182 23.5034C52.7339 23.6936 53.0408 23.8888 53.3574 24.0783C53.5289 24.1818 53.7042 24.2831 53.8777 24.3832C54.0248 24.4681 54.1709 24.5525 54.318 24.6374C54.3921 24.6802 54.4827 24.7055 54.5704 24.7336C54.5743 24.7359 54.5762 24.7393 54.5811 24.7421C54.9737 24.9688 55.7502 25.0076 56.1341 24.7421C56.3738 24.5744 56.6427 24.4214 56.8999 24.2639C57.2126 24.0721 57.5283 23.8786 57.8547 23.6924C58.0359 23.5889 58.2142 23.4838 58.3954 23.3791C58.9644 23.7144 59.5382 24.0479 60.116 24.3793C60.9665 24.8658 61.819 25.3535 62.6423 25.8558C63.3545 26.2906 64.053 26.7299 64.774 27.1597C65.1666 27.3954 65.571 27.6266 65.9753 27.8578C66.3202 28.0546 66.666 28.2543 67.009 28.4546C67.5828 28.7926 68.1625 29.1206 68.7685 29.4401C69.0949 29.6105 69.4184 29.7849 69.7428 29.9587C70.0419 30.1168 70.3478 30.2743 70.6197 30.4481C70.0789 30.7771 69.5285 31.1006 68.9741 31.4218C68.7033 31.4296 68.4353 31.4864 68.2317 31.604C67.8001 31.8532 67.7874 32.279 68.2317 32.5265C68.9926 32.9512 69.7681 33.3697 70.5203 33.8017C69.699 34.2804 68.8884 34.763 68.069 35.2406C67.6764 35.4718 67.2818 35.7018 66.8853 35.9285C66.4975 36.1501 66.0863 36.3549 65.6898 36.5681C64.9688 36.9539 64.2674 37.3499 63.5747 37.7521C63.1918 37.9754 62.806 38.1982 62.4328 38.4249C62.0704 38.6476 61.7294 38.8816 61.3728 39.1055C60.3313 39.7608 59.3132 40.4274 58.2385 41.0636C57.5526 40.6406 56.8882 40.2074 56.2179 39.7754C56.2062 39.7687 56.1955 39.7614 56.1838 39.7546C55.7424 39.4998 54.9669 39.5291 54.5402 39.7754C54.5324 39.7799 54.5314 39.785 54.5236 39.7895C54.2109 39.7811 53.8952 39.8396 53.6623 39.9763C53.1499 40.2744 52.6471 40.577 52.1434 40.8802C51.6076 40.5944 51.0932 40.2974 50.5827 39.9971ZM55.531 44.4774C55.4998 44.465 55.4706 44.4526 55.4404 44.4397C55.228 44.3373 55.0332 44.2226 54.8373 44.1095C54.547 43.9441 54.2537 43.7793 53.9634 43.6139C53.3876 43.2894 52.8176 42.9603 52.2457 42.6335C52.5936 42.4158 52.955 42.206 53.3252 42.0024C53.8991 41.6868 54.4671 41.3679 55.0332 41.0467C55.5749 41.3831 56.1156 41.7189 56.6758 42.0446C56.9983 42.2308 57.3188 42.4203 57.6559 42.5992C57.8888 42.7224 58.1508 42.8276 58.4149 42.9305C57.9521 43.1988 57.502 43.4733 57.0772 43.7624C56.7528 43.9824 56.441 44.2074 56.1166 44.4273C56.0191 44.4926 55.9188 44.5584 55.8184 44.6231C55.8058 44.6158 55.798 44.6056 55.7843 44.5978C55.7103 44.5561 55.6245 44.5168 55.531 44.4774Z" fill="#40FF80" fill-opacity="0.5"/>
</g>
</g>
<defs>
<filter id="filter0_d_322_170" x="0.000244141" y="0" width="110.851" height="69" filterUnits="userSpaceOnUse" color-interpolation-filters="sRGB">
<feFlood flood-opacity="0" result="BackgroundImageFix"/>
<feColorMatrix in="SourceAlpha" type="matrix" values="0 0 0 0 0 0 0 0 0 0 0 0 0 0 0 0 0 0 127 0" result="hardAlpha"/>
<feOffset dy="5"/>
<feComposite in2="hardAlpha" operator="out"/>
<feColorMatrix type="matrix" values="0 0 0 0 1 0 0 0 0 1 0 0 0 0 1 0 0 0 0.35 0"/>
<feBlend mode="normal" in2="BackgroundImageFix" result="effect1_dropShadow_322_170"/>
<feBlend mode="normal" in="SourceGraphic" in2="effect1_dropShadow_322_170" result="shape"/>
</filter>
<clipPath id="clip0_322_170">
<rect width="36" height="36" fill="white" transform="matrix(0.866025 0.5 -0.866025 0.5 55.4258 14)"/>
</clipPath>
</defs>
</svg>
