<svg width="111" height="64" viewBox="0 0 111 64" fill="none" xmlns="http://www.w3.org/2000/svg">
<g filter="url(#filter0_d_322_164)">
<rect width="64" height="64" rx="32" transform="matrix(0.866025 -0.5 0.866025 0.5 0 32)" fill="#0C0C0C" shape-rendering="crispEdges"/>
<rect x="-0.433013" width="64.5" height="64.5" rx="32.25" transform="matrix(0.866025 -0.5 0.866025 0.5 -0.0580127 31.7835)" stroke="#333333" stroke-width="0.5" shape-rendering="crispEdges"/>
<g clip-path="url(#clip0_322_164)">
<path d="M60.6218 35C62.7741 33.7574 62.7741 31.7426 60.6218 30.5C58.4694 29.2574 54.9799 29.2574 52.8275 30.5C50.6752 31.7426 50.6752 33.7574 52.8275 35C54.9799 36.2426 58.4694 36.2426 60.6218 35Z" stroke="#38BDFF" stroke-opacity="0.5" stroke-width="1.5"/>
<path d="M44.2066 40.5227C40.2261 38.2245 38.2357 37.0754 37.779 35.6882C37.5813 35.0876 37.5911 34.4683 37.808 33.8656C38.1298 32.9709 39.0819 32.1679 40.797 31.0871C41.6528 30.593 41.753 29.7999 41.0968 29.2273C40.1126 28.3683 40.3283 27.2165 41.612 26.4753L45.8565 24.0247C47.1402 23.2836 49.1353 23.1591 50.6232 23.7272C51.615 24.1061 52.9886 24.0483 53.8445 23.5541C55.7165 22.5639 57.1073 22.0143 58.657 21.8284C59.7008 21.7033 60.7736 21.6976 61.8138 21.8117C64.2165 22.0754 66.2069 23.2246 70.1874 25.5227C74.168 27.8209 76.1584 28.9701 76.6151 30.3573C76.8127 30.9578 76.8029 31.5772 76.5862 32.1799C76.0853 33.5722 74.0581 34.7425 70.0037 37.0834L64.2302 40.4167C60.1759 42.7574 58.1487 43.9278 55.7372 44.217C54.6932 44.3422 53.6205 44.3479 52.5804 44.2338C51.9017 44.1593 51.2559 44.0141 50.589 43.7925" stroke="#38BDFF" stroke-opacity="0.5" stroke-width="1.5" stroke-linecap="round"/>
<path d="M61.9209 25.25L60.6218 26" stroke="#38BDFF" stroke-opacity="0.5" stroke-width="1.5" stroke-linecap="round"/>
</g>
</g>
<defs>
<filter id="filter0_d_322_164" x="0" y="0" width="110.851" height="69" filterUnits="userSpaceOnUse" color-interpolation-filters="sRGB">
<feFlood flood-opacity="0" result="BackgroundImageFix"/>
<feColorMatrix in="SourceAlpha" type="matrix" values="0 0 0 0 0 0 0 0 0 0 0 0 0 0 0 0 0 0 127 0" result="hardAlpha"/>
<feOffset dy="5"/>
<feComposite in2="hardAlpha" operator="out"/>
<feColorMatrix type="matrix" values="0 0 0 0 1 0 0 0 0 1 0 0 0 0 1 0 0 0 0.35 0"/>
<feBlend mode="normal" in2="BackgroundImageFix" result="effect1_dropShadow_322_164"/>
<feBlend mode="normal" in="SourceGraphic" in2="effect1_dropShadow_322_164" result="shape"/>
</filter>
<clipPath id="clip0_322_164">
<rect width="36" height="36" fill="white" transform="matrix(0.866025 -0.5 0.866025 0.5 24.2488 32)"/>
</clipPath>
</defs>
</svg>
