<svg width="111" height="64" viewBox="0 0 111 64" fill="none" xmlns="http://www.w3.org/2000/svg">
<g filter="url(#filter0_d_322_156)">
<rect width="64" height="64" rx="32" transform="matrix(0.866025 -0.5 0.866025 0.5 0 32)" fill="#0C0C0C" shape-rendering="crispEdges"/>
<rect x="-0.433013" width="64.5" height="64.5" rx="32.25" transform="matrix(0.866025 -0.5 0.866025 0.5 -0.0580127 31.7835)" stroke="#333333" stroke-width="0.5" shape-rendering="crispEdges"/>
<g clip-path="url(#clip0_322_156)">
<path fill-rule="evenodd" clip-rule="evenodd" d="M36.1147 26.1283C33.0224 27.9137 33.0224 30.8083 36.1147 32.5936C38.0019 33.6832 40.6048 34.1078 43.0497 33.8675C42.6334 35.279 43.3689 36.7818 45.2561 37.8714C47.1433 38.9609 49.7461 39.3856 52.1911 39.1452C51.7748 40.5569 52.5102 42.0595 54.3975 43.1492C57.4897 44.9345 62.5034 44.9345 65.5957 43.1492C68.688 41.3638 68.688 38.4692 65.5958 36.6839L60.7906 33.9096C62.5448 33.8082 64.2517 33.3695 65.5956 32.5936C68.688 30.8082 68.688 27.9137 65.5956 26.1283C63.7084 25.0388 61.1056 24.6141 58.6607 24.8544C59.0769 23.4429 58.3415 21.9402 56.4542 20.8506C53.3619 19.0652 48.3484 19.0652 45.2561 20.8505L36.1147 26.1283ZM57.9398 34.6387L54.3974 36.6839C52.4411 37.8134 49.2692 37.8133 47.3129 36.6839C45.3566 35.5544 45.3565 33.7231 47.3129 32.5936L50.8552 30.5484L54.3975 32.5936L57.9398 34.6387ZM45.2561 31.4061L48.7984 29.3609L41.7139 25.2707L38.1715 27.3158C36.2152 28.4453 36.2152 30.2766 38.1715 31.4061C40.1279 32.5356 43.2997 32.5356 45.2561 31.4061ZM54.3974 22.0381C56.3525 23.1668 56.3538 24.9965 54.4013 26.1261L52.6282 27.1498L50.8552 28.1734L43.7707 24.0832L47.3129 22.038C49.2692 20.9086 52.4411 20.9086 54.3974 22.0381ZM56.4499 31.4035C54.4994 30.2747 54.4994 28.4472 56.4499 27.3184L56.4577 27.3138C58.4144 26.1863 61.5836 26.187 63.5388 27.3158C65.4951 28.4453 65.4951 30.2766 63.5388 31.4061C61.5839 32.5348 58.4153 32.5355 56.4587 31.4086L56.4499 31.4035ZM56.4542 37.8714C54.4979 39.0009 54.4979 40.8321 56.4543 41.9617C58.4106 43.0912 61.5825 43.0912 63.5389 41.9617C65.4952 40.8321 65.4952 39.0008 63.5389 37.8714L59.9966 35.8262L56.4542 37.8714Z" fill="#FF4545" fill-opacity="0.5"/>
</g>
</g>
<defs>
<filter id="filter0_d_322_156" x="0" y="0" width="110.851" height="69" filterUnits="userSpaceOnUse" color-interpolation-filters="sRGB">
<feFlood flood-opacity="0" result="BackgroundImageFix"/>
<feColorMatrix in="SourceAlpha" type="matrix" values="0 0 0 0 0 0 0 0 0 0 0 0 0 0 0 0 0 0 127 0" result="hardAlpha"/>
<feOffset dy="5"/>
<feComposite in2="hardAlpha" operator="out"/>
<feColorMatrix type="matrix" values="0 0 0 0 1 0 0 0 0 1 0 0 0 0 1 0 0 0 0.35 0"/>
<feBlend mode="normal" in2="BackgroundImageFix" result="effect1_dropShadow_322_156"/>
<feBlend mode="normal" in="SourceGraphic" in2="effect1_dropShadow_322_156" result="shape"/>
</filter>
<clipPath id="clip0_322_156">
<rect width="38" height="38" fill="white" transform="matrix(0.866025 -0.5 0.866025 0.5 22.5166 32)"/>
</clipPath>
</defs>
</svg>
