<svg width="367" height="220" viewBox="0 0 367 220" fill="none" xmlns="http://www.w3.org/2000/svg">
<path d="M1 215.569L366.224 5.86157" stroke="white" stroke-width="0.5"/>
<rect width="180" height="154" rx="8" transform="matrix(0.866025 -0.5 0.866025 0.5 38.2539 116)" fill="#111111"/>
<rect width="180" height="154" rx="8" transform="matrix(0.866025 -0.5 0.866025 0.5 38.2539 116)" stroke="#6C6C6C" stroke-dasharray="5 2"/>
<g opacity="0.8">
<g filter="url(#filter0_d_316_2)">
<rect x="0.433013" width="102.5" height="69.5" rx="6.75" transform="matrix(0.866025 -0.5 0.866025 0.5 111.491 140.467)" stroke="#353535" stroke-width="0.5" shape-rendering="crispEdges"/>
</g>
<g filter="url(#filter1_d_316_2)">
<path d="M240.441 79.6255C243.09 76.8342 249.639 76.2934 253.538 78.5439L278.067 92.7061C281.965 94.9566 281.028 98.7378 276.194 100.267L254.932 106.992C251.711 108.01 247.711 107.68 245.114 106.181L230.199 97.5693C227.602 96.0699 227.03 93.7606 228.794 91.9009L240.441 79.6255Z" stroke="#353535" stroke-width="0.5" shape-rendering="crispEdges"/>
</g>
<g filter="url(#filter2_d_316_2)">
<circle cx="20.5" cy="20.5" r="20.25" transform="matrix(0.866025 -0.5 0.866025 0.5 115.763 88.75)" stroke="#353535" stroke-width="0.5" shape-rendering="crispEdges"/>
</g>
<g filter="url(#filter3_d_316_2)">
<circle cx="16.5" cy="16.5" r="16.25" transform="matrix(0.866025 -0.5 0.866025 0.5 81.1226 112.75)" stroke="#353535" stroke-width="0.5" shape-rendering="crispEdges"/>
</g>
</g>
<rect width="107" height="36" rx="4" transform="matrix(0.866025 -0.5 2.20305e-08 1 56.2539 54)" fill="#161616"/>
<path d="M68.2843 59.0869L68.2843 63.9589L72.9218 61.2814L72.9218 62.7829L68.2843 65.4604L68.2843 70.5949L73.9766 67.3084L73.9766 68.7679L66.702 72.9679L66.702 58.5094L73.813 54.4039L73.6311 55.9999L68.2843 59.0869ZM82.8809 47.898L84.4086 47.2365L84.4086 62.745L83.0719 63.5167L82.9264 62.1412C82.5687 62.9357 82.1565 63.6042 81.6897 64.1467C81.229 64.6857 80.7349 65.1075 80.2075 65.412C79.377 65.8915 78.692 66.0455 78.1524 65.874C77.6129 65.7025 77.2128 65.2615 76.9521 64.551C76.6915 63.8335 76.5611 62.9042 76.5611 61.7632C76.5611 60.6572 76.7096 59.5845 77.0067 58.545C77.3037 57.4985 77.7311 56.5657 78.2888 55.7467C78.8526 54.9172 79.5286 54.275 80.3166 53.82C80.8683 53.5015 81.3533 53.3335 81.7716 53.316C82.1898 53.2915 82.5596 53.4 82.8809 53.6415L82.8809 47.898ZM80.7167 55.0065C79.9165 55.4685 79.3012 56.1842 78.8708 57.1537C78.4404 58.1232 78.2252 59.3395 78.2252 60.8025C78.2252 61.7545 78.3131 62.5017 78.4889 63.0442C78.6647 63.5867 78.9223 63.921 79.2618 64.047C79.6074 64.1695 80.0287 64.0872 80.5258 63.8002C81.0714 63.4852 81.5351 63.039 81.917 62.4615C82.305 61.8805 82.6263 61.2925 82.8809 60.6975L82.8809 55.1745C82.6203 54.877 82.305 54.7125 81.9352 54.681C81.5654 54.6425 81.1593 54.751 80.7167 55.0065ZM92.9037 46.7838L92.9037 56.4438L95.6044 54.8846L95.6044 56.2811L88.4207 60.4286L88.4207 59.0321L91.376 57.3258L91.376 49.0623L88.5117 50.7161L88.5117 49.3196L92.9037 46.7838ZM91.6852 42.3108C92.0247 42.1148 92.2945 42.0781 92.4945 42.2006C92.7006 42.3196 92.8037 42.5506 92.8037 42.8936C92.8037 43.2506 92.7006 43.6111 92.4945 43.9751C92.2945 44.3286 92.0247 44.6033 91.6852 44.7993C91.3639 44.9848 91.1002 45.0181 90.8941 44.8991C90.688 44.7731 90.5849 44.5316 90.5849 44.1746C90.5849 43.8316 90.688 43.4816 90.8941 43.1246C91.1002 42.7676 91.3639 42.4963 91.6852 42.3108ZM106.564 49.3972C106.236 49.8382 105.839 50.2634 105.373 50.6729C104.906 51.0824 104.448 51.4167 103.999 51.6757C102.969 52.2707 102.175 52.4177 101.617 52.1167C101.059 51.8157 100.78 51.1752 100.78 50.1952L100.78 43.6012L98.5799 44.8717L98.5799 43.5067L100.78 42.2362L100.78 39.7267L102.308 38.6347L102.308 41.3542L105.618 39.4432L105.436 40.9132L102.308 42.7192L102.308 49.2922C102.308 49.9082 102.448 50.2967 102.726 50.4577C103.011 50.6152 103.481 50.5049 104.136 50.1269C104.494 49.9204 104.824 49.6807 105.127 49.4077C105.43 49.1347 105.712 48.8459 105.973 48.5414L106.564 49.3972ZM114.713 34.192L114.713 43.8521L117.414 42.2928L117.414 43.6893L110.23 47.8368L110.23 46.4403L113.186 44.7341L113.186 36.4706L110.321 38.1243L110.321 36.7278L114.713 34.192ZM113.495 29.719C113.834 29.523 114.104 29.4863 114.304 29.6088C114.51 29.7278 114.613 29.9588 114.613 30.3018C114.613 30.6588 114.51 31.0193 114.304 31.3833C114.104 31.7368 113.834 32.0116 113.495 32.2076C113.174 32.3931 112.91 32.4263 112.704 32.3073C112.498 32.1813 112.395 31.9398 112.395 31.5828C112.395 31.2398 112.498 30.8898 112.704 30.5328C112.91 30.1758 113.174 29.9045 113.495 29.719ZM120.771 41.7509L120.771 30.6944L122.072 29.9437L122.19 31.4084C122.578 30.6174 123.063 29.9034 123.645 29.2664C124.233 28.6189 124.803 28.1359 125.354 27.8174C126.294 27.2749 126.976 27.1682 127.4 27.4972C127.831 27.8227 128.046 28.4964 128.046 29.5184L128.046 37.5509L126.518 38.4329L126.518 31.7024C126.518 30.9464 126.482 30.3584 126.409 29.9384C126.337 29.5114 126.185 29.2594 125.955 29.1824C125.724 29.0984 125.367 29.1964 124.882 29.4764C124.506 29.6934 124.151 29.9927 123.818 30.3742C123.49 30.7522 123.196 31.1599 122.936 31.5974C122.681 32.0244 122.469 32.4304 122.299 32.8154L122.299 40.8689L120.771 41.7509ZM139.46 18.7285L139.933 20.1145C139.527 20.496 139.093 20.8373 138.633 21.1383C138.172 21.4393 137.672 21.7455 137.132 22.057C137.684 22.0325 138.099 22.1743 138.378 22.4823C138.657 22.7833 138.796 23.2488 138.796 23.8788C138.796 24.6068 138.654 25.3365 138.369 26.068C138.084 26.7995 137.672 27.482 137.132 28.1155C136.599 28.7455 135.953 29.2793 135.195 29.7168C134.874 29.9023 134.604 30.0405 134.386 30.1315C134.174 30.219 133.968 30.2855 133.768 30.331C133.622 30.527 133.501 30.751 133.404 31.003C133.313 31.2515 133.268 31.4808 133.268 31.6908C133.268 31.9568 133.359 32.1248 133.54 32.1948C133.722 32.2648 134.059 32.158 134.55 31.8745L136.277 30.877C136.92 30.506 137.496 30.3065 138.005 30.2785C138.52 30.247 138.924 30.3713 139.215 30.6513C139.512 30.9278 139.66 31.353 139.66 31.927C139.66 33.012 139.26 34.076 138.46 35.119C137.666 36.1585 136.541 37.0983 135.086 37.9383C134.068 38.5263 133.265 38.8675 132.677 38.962C132.088 39.0635 131.667 38.9393 131.413 38.5893C131.164 38.2428 131.04 37.695 131.04 36.946L132.422 36.148C132.422 36.575 132.495 36.8865 132.64 37.0825C132.786 37.2785 133.049 37.3328 133.431 37.2453C133.813 37.1648 134.362 36.918 135.077 36.505C135.78 36.099 136.353 35.6983 136.796 35.3028C137.244 34.9108 137.575 34.517 137.787 34.1215C138.005 33.7295 138.114 33.334 138.114 32.935C138.114 32.41 137.908 32.1335 137.496 32.1055C137.084 32.0775 136.568 32.242 135.95 32.599L134.241 33.586C133.416 34.062 132.807 34.2038 132.413 34.0113C132.025 33.8153 131.831 33.4443 131.831 32.8983C131.831 32.5413 131.919 32.144 132.095 31.7065C132.276 31.2655 132.54 30.8158 132.886 30.3573C132.334 30.3398 131.928 30.1578 131.667 29.8113C131.406 29.4648 131.276 28.938 131.276 28.231C131.276 27.482 131.437 26.7278 131.758 25.9683C132.079 25.2018 132.528 24.4878 133.104 23.8263C133.68 23.1648 134.344 22.617 135.095 22.183C135.902 21.7105 136.556 21.294 137.059 20.9335C137.563 20.566 137.993 20.209 138.351 19.8625C138.714 19.5125 139.084 19.1345 139.46 18.7285ZM135.095 23.4745C134.325 23.919 133.756 24.4895 133.386 25.186C133.022 25.872 132.84 26.586 132.84 27.328C132.84 28.077 133.028 28.5845 133.404 28.8505C133.78 29.1165 134.356 29.0255 135.132 28.5775C135.811 28.1855 136.326 27.6605 136.678 27.0025C137.035 26.341 137.214 25.6043 137.214 24.7923C137.214 23.9593 137.035 23.4325 136.678 23.212C136.326 22.981 135.799 23.0685 135.095 23.4745Z" fill="#6C6C6C"/>
<defs>
<filter id="filter0_d_316_2" x="110.984" y="90.8002" width="150.72" height="90.3995" filterUnits="userSpaceOnUse" color-interpolation-filters="sRGB">
<feFlood flood-opacity="0" result="BackgroundImageFix"/>
<feColorMatrix in="SourceAlpha" type="matrix" values="0 0 0 0 0 0 0 0 0 0 0 0 0 0 0 0 0 0 127 0" result="hardAlpha"/>
<feOffset dy="4"/>
<feGaussianBlur stdDeviation="2"/>
<feComposite in2="hardAlpha" operator="out"/>
<feColorMatrix type="matrix" values="0 0 0 0 0 0 0 0 0 0 0 0 0 0 0 0 0 0 0.25 0"/>
<feBlend mode="normal" in2="BackgroundImageFix" result="effect1_dropShadow_316_2"/>
<feBlend mode="normal" in="SourceGraphic" in2="effect1_dropShadow_316_2" result="shape"/>
</filter>
<filter id="filter1_d_316_2" x="223.471" y="76.9685" width="61.3247" height="38.787" filterUnits="userSpaceOnUse" color-interpolation-filters="sRGB">
<feFlood flood-opacity="0" result="BackgroundImageFix"/>
<feColorMatrix in="SourceAlpha" type="matrix" values="0 0 0 0 0 0 0 0 0 0 0 0 0 0 0 0 0 0 127 0" result="hardAlpha"/>
<feOffset dy="4"/>
<feGaussianBlur stdDeviation="2"/>
<feComposite in2="hardAlpha" operator="out"/>
<feColorMatrix type="matrix" values="0 0 0 0 0 0 0 0 0 0 0 0 0 0 0 0 0 0 0.25 0"/>
<feBlend mode="normal" in2="BackgroundImageFix" result="effect1_dropShadow_316_2"/>
<feBlend mode="normal" in="SourceGraphic" in2="effect1_dropShadow_316_2" result="shape"/>
</filter>
<filter id="filter2_d_316_2" x="122.163" y="74.2543" width="58.2144" height="36.9913" filterUnits="userSpaceOnUse" color-interpolation-filters="sRGB">
<feFlood flood-opacity="0" result="BackgroundImageFix"/>
<feColorMatrix in="SourceAlpha" type="matrix" values="0 0 0 0 0 0 0 0 0 0 0 0 0 0 0 0 0 0 127 0" result="hardAlpha"/>
<feOffset dy="4"/>
<feGaussianBlur stdDeviation="2"/>
<feComposite in2="hardAlpha" operator="out"/>
<feColorMatrix type="matrix" values="0 0 0 0 0 0 0 0 0 0 0 0 0 0 0 0 0 0 0.25 0"/>
<feBlend mode="normal" in2="BackgroundImageFix" result="effect1_dropShadow_316_2"/>
<feBlend mode="normal" in="SourceGraphic" in2="effect1_dropShadow_316_2" result="shape"/>
</filter>
<filter id="filter3_d_316_2" x="85.4932" y="101.083" width="48.4165" height="31.3345" filterUnits="userSpaceOnUse" color-interpolation-filters="sRGB">
<feFlood flood-opacity="0" result="BackgroundImageFix"/>
<feColorMatrix in="SourceAlpha" type="matrix" values="0 0 0 0 0 0 0 0 0 0 0 0 0 0 0 0 0 0 127 0" result="hardAlpha"/>
<feOffset dy="4"/>
<feGaussianBlur stdDeviation="2"/>
<feComposite in2="hardAlpha" operator="out"/>
<feColorMatrix type="matrix" values="0 0 0 0 0 0 0 0 0 0 0 0 0 0 0 0 0 0 0.25 0"/>
<feBlend mode="normal" in2="BackgroundImageFix" result="effect1_dropShadow_316_2"/>
<feBlend mode="normal" in="SourceGraphic" in2="effect1_dropShadow_316_2" result="shape"/>
</filter>
</defs>
</svg>
