<svg width="217" height="141" viewBox="0 0 217 141" fill="none" xmlns="http://www.w3.org/2000/svg">
<g filter="url(#filter0_d_316_17)">
<rect width="97.8475" height="66.4983" rx="7" transform="matrix(0.866025 -0.5 0.866025 0.5 40.3125 92.5693)" fill="#151515" stroke="#E8E8E8" stroke-width="2"/>
<path d="M153.158 52.2737C150.465 50.7187 149.872 48.3243 151.702 46.3956L162.337 35.1867C165.084 32.2919 171.875 31.7308 175.918 34.0648L198.412 47.0515C202.454 49.3855 201.482 53.3068 196.468 54.8926L177.054 61.0329C173.714 62.0894 169.566 61.7468 166.873 60.1918L153.158 52.2737Z" fill="#151515" stroke="#E8E8E8" stroke-width="2"/>
<circle cx="19.4745" cy="19.4745" r="19.4745" transform="matrix(0.866025 -0.5 0.866025 0.5 44.4258 43.6456)" fill="#151515" stroke="#E8E8E8" stroke-width="2"/>
<circle cx="15.6746" cy="15.6746" r="15.6746" transform="matrix(0.866025 -0.5 0.866025 0.5 11.5181 66.445)" fill="#151515" stroke="#E8E8E8" stroke-width="2"/>
</g>
<defs>
<filter id="filter0_d_316_17" x="6.24512" y="21.168" width="207.903" height="119.307" filterUnits="userSpaceOnUse" color-interpolation-filters="sRGB">
<feFlood flood-opacity="0" result="BackgroundImageFix"/>
<feColorMatrix in="SourceAlpha" type="matrix" values="0 0 0 0 0 0 0 0 0 0 0 0 0 0 0 0 0 0 127 0" result="hardAlpha"/>
<feOffset dy="4"/>
<feGaussianBlur stdDeviation="6"/>
<feComposite in2="hardAlpha" operator="out"/>
<feColorMatrix type="matrix" values="0 0 0 0 0.399038 0 0 0 0 0.399038 0 0 0 0 0.399038 0 0 0 0.3 0"/>
<feBlend mode="normal" in2="BackgroundImageFix" result="effect1_dropShadow_316_17"/>
<feBlend mode="normal" in="SourceGraphic" in2="effect1_dropShadow_316_17" result="shape"/>
</filter>
</defs>
</svg>
