<svg width="367" height="267" viewBox="0 0 367 267" fill="none" xmlns="http://www.w3.org/2000/svg">
<path d="M1 262.896L366 51.0085" stroke="white" stroke-width="0.5"/>
<path d="M1 215.123L366 3.23503" stroke="white" stroke-width="0.5"/>
<rect width="179.265" height="153.371" rx="8" transform="matrix(0.864838 -0.502051 0.864838 0.502051 38.793 142.286)" fill="#111111"/>
<rect width="179.265" height="153.371" rx="8" transform="matrix(0.864838 -0.502051 0.864838 0.502051 38.793 142.286)" stroke="#6C6C6C" stroke-dasharray="5 2"/>
<g clip-path="url(#clip0_318_22)">
<path d="M189.55 104.993C195.918 101.296 195.918 95.3021 189.55 91.6051C183.181 87.9081 172.856 87.9081 166.487 91.6051C160.119 95.3021 160.119 101.296 166.487 104.993C172.856 108.69 183.181 108.69 189.55 104.993Z" stroke="#353535"/>
<path d="M239.825 156.135L236.112 153.979C235.753 153.771 235.573 153.667 235.401 153.569C225.429 147.901 211.54 145.192 197.696 146.214C197.457 146.232 197.206 146.252 196.703 146.292C196.379 146.318 196.217 146.331 196.086 146.34C188.188 146.879 181.304 143.225 181.523 138.61C181.526 138.534 181.534 138.439 181.549 138.249L181.986 132.933C182.668 124.616 168.051 118.783 154.919 122.131C150.218 123.33 146.532 125.566 144.676 128.345L143.331 130.358M136.739 144.28L134.828 150.877" stroke="#353535" stroke-linecap="round"/>
<path d="M191.856 157.206L192.095 158.734C193.405 167.097 188.248 175.367 178.019 181.305" stroke="#353535" stroke-linecap="round"/>
<path d="M201.081 125.075C208.652 122.438 214.989 118.76 219.531 114.365" stroke="#353535" stroke-linecap="round"/>
</g>
<rect width="118.514" height="36" rx="4" transform="matrix(0.864838 -0.502051 2.19105e-08 1 55.7002 81.2855)" fill="#161616"/>
<path d="M73.023 81.7708L73.7313 95.8181L72.2148 96.6984L71.8244 89.3756C71.8062 88.8751 71.788 88.3677 71.7699 87.8532C71.7517 87.3388 71.7396 86.8418 71.7336 86.3623C71.7275 85.8828 71.7245 85.4541 71.7245 85.0761C71.7245 84.6981 71.7245 84.4041 71.7245 84.1941L69.6177 95.6126L68.0377 96.5298L65.7765 87.6469C65.7826 87.8464 65.7887 88.1439 65.7947 88.5394C65.8008 88.9279 65.8038 89.3706 65.8038 89.8676C65.8098 90.3611 65.8068 90.8739 65.7947 91.4059C65.7887 91.9274 65.7765 92.4174 65.7584 92.876L65.4224 100.642L63.9422 101.501L64.6505 86.6311L66.8481 85.3554L68.8731 94.0814L70.8073 83.057L73.023 81.7708ZM82.9503 88.0513C82.9503 88.4923 83.0139 88.7774 83.141 88.9066C83.2682 89.0358 83.4649 89.0721 83.7313 89.0155L83.359 90.4706C82.9473 90.6466 82.5871 90.7052 82.2784 90.6464C81.9696 90.5807 81.7456 90.3432 81.6064 89.934C81.2613 90.6453 80.8315 91.2834 80.3169 91.8481C79.8023 92.4058 79.2333 92.8656 78.6097 93.2276C77.6532 93.7829 76.8995 93.9089 76.3486 93.6057C75.7977 93.3025 75.5222 92.6364 75.5222 91.6074C75.5222 90.4664 75.9067 89.3683 76.6755 88.313C77.4443 87.2576 78.5552 86.3082 80.0082 85.4648L81.4157 84.6477L81.4157 83.7237C81.4157 82.9257 81.2129 82.4799 80.8073 82.3864C80.4077 82.2824 79.8508 82.4377 79.1364 82.8524C78.8216 83.0351 78.4523 83.295 78.0285 83.632C77.6048 83.962 77.1447 84.3726 76.6483 84.8638L76.2487 83.7622C76.8359 83.1693 77.3868 82.671 77.9014 82.2673C78.416 81.8636 78.9063 81.5264 79.3725 81.2558C80.5651 80.5635 81.4581 80.3671 82.0513 80.6667C82.6507 80.9558 82.9503 81.6498 82.9503 82.7488L82.9503 88.0513ZM79.0002 91.6569C79.4724 91.3828 79.9234 90.9845 80.3532 90.462C80.783 89.9325 81.1372 89.3419 81.4157 88.6902L81.4157 85.8447L80.0354 86.646C78.982 87.2575 78.2374 87.8998 77.8015 88.5728C77.3717 89.2423 77.1568 89.9306 77.1568 90.6376C77.1568 91.3236 77.3081 91.7572 77.6108 91.9385C77.9196 92.1093 78.3827 92.0154 79.0002 91.6569ZM87.0841 88.0666L87.0841 86.7121L88.5733 85.8476L88.5733 77.5001L87.0841 78.3646L87.0841 77.0101L89.7357 75.4708L90.0172 77.9219C90.3865 76.7975 90.8345 75.834 91.3611 75.0312C91.8878 74.2285 92.584 73.5758 93.4497 73.0733C93.7161 72.9187 93.9522 72.8061 94.158 72.7356C94.3699 72.6546 94.5848 72.5858 94.8028 72.5293L94.3578 74.3626C94.158 74.4156 93.9764 74.4755 93.813 74.5424C93.6495 74.6023 93.4618 74.6938 93.2499 74.8168C92.5174 75.242 91.8878 75.9085 91.3611 76.8162C90.8345 77.724 90.4137 78.8782 90.0989 80.279L90.0989 84.962L92.0422 83.8339L92.0422 85.1884L87.0841 88.0666ZM93.3317 77.1213L93.3317 74.7168L93.486 73.2937L94.8028 72.5293L94.5848 76.3938L93.3317 77.1213ZM104.73 75.4079C104.73 75.8489 104.794 76.134 104.921 76.2632C105.048 76.3924 105.245 76.4287 105.511 76.372L105.139 77.8272C104.727 78.0031 104.367 78.0618 104.058 78.003C103.749 77.9372 103.525 77.6997 103.386 77.2906C103.041 78.0019 102.611 78.6399 102.097 79.2046C101.582 79.7624 101.013 80.2222 100.389 80.5842C99.4329 81.1395 98.6792 81.2655 98.1283 80.9623C97.5774 80.6591 97.302 79.993 97.302 78.964C97.302 77.823 97.6864 76.7248 98.4552 75.6695C99.2241 74.6142 100.335 73.6648 101.788 72.8214L103.195 72.0043L103.195 71.0803C103.195 70.2823 102.993 69.8365 102.587 69.743C102.187 69.6389 101.63 69.7942 100.916 70.2089C100.601 70.3917 100.232 70.6516 99.8083 70.9886C99.3845 71.3186 98.9244 71.7292 98.428 72.2203L98.0284 71.1188C98.6157 70.5259 99.1666 70.0276 99.6811 69.6239C100.196 69.2201 100.686 68.883 101.152 68.6124C102.345 67.92 103.238 67.7237 103.831 68.0233C104.43 68.3124 104.73 69.0064 104.73 70.1054L104.73 75.4079ZM100.78 79.0135C101.252 78.7394 101.703 78.3411 102.133 77.8185C102.563 77.289 102.917 76.6984 103.195 76.0468L103.195 73.2013L101.815 74.0026C100.762 74.614 100.017 75.2563 99.5813 75.9293C99.1514 76.5989 98.9365 77.2871 98.9365 77.9941C98.9365 78.6801 99.0879 79.1138 99.3906 79.2951C99.6993 79.4658 100.162 79.372 100.78 79.0135ZM116.365 70.5124C116.038 70.9542 115.641 71.3804 115.175 71.791C114.709 72.2016 114.252 72.5369 113.804 72.797C112.775 73.3944 111.982 73.5433 111.425 73.2436C110.868 72.9439 110.589 72.3041 110.589 71.3241L110.589 64.7301L108.392 66.0058L108.392 64.6408L110.589 63.3651L110.589 60.8556L112.115 59.76L112.115 62.4795L115.42 60.5606L115.239 62.0311L112.115 63.8445L112.115 70.4175C112.115 71.0335 112.254 71.4217 112.532 71.582C112.817 71.7388 113.286 71.6275 113.94 71.2479C114.297 71.0406 114.627 70.8 114.93 70.5263C115.232 70.2526 115.514 69.9632 115.774 69.6581L116.365 70.5124ZM121.188 52.5921L121.188 58.7241C121.564 57.9252 122.024 57.2241 122.569 56.6208C123.12 56.007 123.677 55.5367 124.24 55.2098C125.172 54.6686 125.853 54.5603 126.283 54.8847C126.713 55.2092 126.928 55.8825 126.928 56.9045L126.928 64.937L125.402 65.8226L125.402 57.8321C125.402 57.1671 125.269 56.7614 125.002 56.615C124.736 56.4617 124.318 56.5501 123.749 56.8805C123.386 57.0914 123.041 57.3862 122.714 57.765C122.387 58.1437 122.094 58.5487 121.833 58.9798C121.573 59.4109 121.358 59.8227 121.188 60.2151L121.188 68.2686L119.663 69.1542L119.663 53.6667L121.188 52.5921ZM134.194 49.4311C135.096 48.9074 135.85 48.7079 136.455 48.8325C137.067 48.9465 137.524 49.3462 137.826 50.0315C138.135 50.7132 138.29 51.6386 138.29 52.8076C138.29 53.9346 138.132 55.0235 137.817 56.0742C137.503 57.125 137.039 58.0763 136.428 58.9283C135.823 59.7697 135.072 60.4505 134.176 60.9706C133.28 61.4908 132.526 61.6903 131.915 61.5692C131.303 61.4482 130.84 61.0485 130.526 60.3703C130.217 59.6815 130.062 58.7596 130.062 57.6046C130.062 56.4636 130.22 55.3678 130.535 54.317C130.849 53.2663 131.313 52.3219 131.924 51.484C132.541 50.6355 133.298 49.9512 134.194 49.4311ZM134.194 50.8696C133.371 51.3475 132.747 52.063 132.324 53.016C131.906 53.9585 131.697 55.1718 131.697 56.6558C131.697 58.1118 131.903 59.0738 132.314 59.5418C132.732 60.0063 133.353 59.9996 134.176 59.5216C134.999 59.0437 135.617 58.3317 136.028 57.3857C136.446 56.4362 136.655 55.2265 136.655 53.7565C136.655 52.2865 136.449 51.321 136.038 50.86C135.626 50.3919 135.011 50.3951 134.194 50.8696ZM141.443 56.5107L141.443 45.4542L142.741 44.7004L142.859 46.1649C143.247 45.373 143.731 44.6578 144.312 44.0194C144.899 43.3706 145.468 42.8862 146.019 42.5664C146.958 42.0217 147.639 41.9133 148.063 42.2413C148.492 42.5658 148.707 43.239 148.707 44.261L148.707 52.2935L147.182 53.1791L147.182 46.4486C147.182 45.6926 147.145 45.1047 147.073 44.6849C147 44.2581 146.849 44.0064 146.619 43.93C146.389 43.8465 146.031 43.9454 145.547 44.2265C145.172 44.4444 144.818 44.7445 144.485 45.1268C144.158 45.5056 143.864 45.914 143.604 46.3521C143.35 46.7797 143.138 47.1862 142.968 47.5716L142.968 55.6251L141.443 56.5107Z" fill="#6C6C6C"/>
<defs>
<clipPath id="clip0_318_22">
<rect width="120" height="128" fill="white" transform="matrix(0.864838 -0.502051 0.864838 0.502051 75.3911 133.777)"/>
</clipPath>
</defs>
</svg>
