<svg width="38" height="38" viewBox="0 0 38 38" fill="none" xmlns="http://www.w3.org/2000/svg">
<path d="M18.9876 19.9284C21.015 19.9284 22.6584 18.285 22.6584 16.2577C22.6584 14.2303 21.015 12.5869 18.9876 12.5869C16.9603 12.5869 15.3169 14.2303 15.3169 16.2577C15.3169 18.285 16.9603 19.9284 18.9876 19.9284ZM18.9876 19.9284V25.4345M33.6706 19.0107C33.6706 27.1985 23.6495 33.1315 20.1648 34.9472C19.788 35.1436 19.5995 35.2418 19.3382 35.2926C19.1345 35.3323 18.8408 35.3323 18.6371 35.2926C18.3757 35.2418 18.1872 35.1436 17.8104 34.9472C14.3257 33.1315 4.30469 27.1985 4.30469 19.0107V12.0686C4.30469 10.6012 4.30469 9.86751 4.54468 9.23682C4.75668 8.67966 5.1012 8.18253 5.54844 7.78838C6.05471 7.34222 6.74169 7.08461 8.11565 6.56937L17.9565 2.87905C18.3381 2.73596 18.5288 2.66442 18.7252 2.63605C18.8992 2.6109 19.0761 2.6109 19.2501 2.63605C19.4465 2.66442 19.6372 2.73596 20.0187 2.87905L29.8596 6.56937C31.2336 7.08461 31.9206 7.34222 32.4267 7.78838C32.874 8.18253 33.2185 8.67966 33.4305 9.23682C33.6706 9.86751 33.6706 10.6012 33.6706 12.0686V19.0107Z" stroke="#737373" stroke-width="2" stroke-linecap="round" stroke-linejoin="round"/>
</svg>
